<svg xmlns="http://www.w3.org/2000/svg" width="29.199" height="29.199" viewBox="0 0 29.199 29.199"><defs><style>.a{fill:#fff;}</style></defs><path class="a" d="M14.6,0A14.6,14.6,0,1,0,29.2,14.6,14.616,14.616,0,0,0,14.6,0Zm0,26.937A12.338,12.338,0,1,1,26.937,14.6,12.352,12.352,0,0,1,14.6,26.937Z"/><g transform="translate(7.814 7.713)"><path class="a" d="M149.462,140.892h-4.523v-4.523a1.131,1.131,0,1,0-2.262,0v4.523h-4.523a1.131,1.131,0,0,0,0,2.262h4.523v4.523a1.131,1.131,0,0,0,2.262,0v-4.523h4.523a1.131,1.131,0,0,0,0-2.262Z" transform="translate(-137.022 -135.238)"/></g></svg>