<svg xmlns="http://www.w3.org/2000/svg" width="304" height="28.667" viewBox="0 0 304 28.667"><defs><style>.a,.b{fill:#fff;}.b{font-size:18px;font-family:Montserrat-Light, Montserrat;font-weight:300;}</style></defs><g transform="translate(-211.024 -111.016)"><path class="a" d="M328.746,111.045a2.207,2.207,0,0,1,.844.032,4.342,4.342,0,0,1,2.622,1.616,4.92,4.92,0,0,1,.91,2.818,7.235,7.235,0,0,1-.45,2.841,4.6,4.6,0,0,1-1.634,2.1,4.783,4.783,0,0,1-2.314.84,4.287,4.287,0,0,1-3.868-3.052,7.406,7.406,0,0,1-.305-2.635,5.292,5.292,0,0,1,.9-2.852,4.132,4.132,0,0,1,2.443-1.583A6.358,6.358,0,0,1,328.746,111.045Z" transform="translate(-108.084 0)"/><path class="a" d="M573.152,161.074a3.134,3.134,0,0,1,1.525.324,3.252,3.252,0,0,1,1.594,1.556,4.586,4.586,0,0,1,.275,2.7A3.724,3.724,0,0,1,573.1,168.9a3.631,3.631,0,0,1-1.922-.653,3.411,3.411,0,0,1-1.325-1.974,5.715,5.715,0,0,1-.065-2.433,3.3,3.3,0,0,1,1.229-2.042A3.964,3.964,0,0,1,573.152,161.074Z" transform="translate(-341.5 -47.655)"/><path class="a" d="M219.405,355.078c.555-.016,1.11,0,1.664.034a22.693,22.693,0,0,1,3.648.26,7.717,7.717,0,0,1,2.537.833,8.1,8.1,0,0,1,1.473,1.164,5.408,5.408,0,0,1,1.226,2.126,11.863,11.863,0,0,1,.549,2.982,5.229,5.229,0,0,1-.054,1.536,2.339,2.339,0,0,1-.887,1.36,3.49,3.49,0,0,1-1.626.612,8.865,8.865,0,0,1-1.219.033c-4.147-.023-8.294-.053-12.441-.046a5.1,5.1,0,0,1-1.455-.114,2.25,2.25,0,0,1-1.314-.943,2.949,2.949,0,0,1-.429-1.186,8.554,8.554,0,0,1,1.845-6.38,5.5,5.5,0,0,1,2.284-1.535A12.914,12.914,0,0,1,219.405,355.078Z" transform="translate(0 -232.377)"/><path class="a" d="M591.019,356.652a2,2,0,0,1,.561-.013h2.152a8.532,8.532,0,0,1,1.871.108,6.766,6.766,0,0,1,3.532,2.15,6.1,6.1,0,0,1,1.411,2.627,4.7,4.7,0,0,1-.074,2.427,2.793,2.793,0,0,1-1.158,1.573,2.6,2.6,0,0,1-1.416.4c-.99,0-1.979,0-2.968,0a2.554,2.554,0,0,1-1.034-.167.427.427,0,0,1-.284-.406,10.585,10.585,0,0,0,.052-1.435,13.173,13.173,0,0,0-.392-2.948,6.01,6.01,0,0,0-1.2-2.282c-.3-.371-.632-.707-.937-1.069a1.141,1.141,0,0,1-.331-.688A.281.281,0,0,1,591.019,356.652Z" transform="translate(-361.61 -233.856)"/><text class="b" transform="translate(260.023 112.683)"><tspan x="0" y="17">Usuarios</tspan></text></g></svg>