<svg xmlns="http://www.w3.org/2000/svg" width="22" height="22" viewBox="0 0 22 22">
  <g id="close_circle" transform="translate(-0.375 0.002)">
    <circle id="Elipse_371" data-name="Elipse 371" cx="11" cy="11" r="11" transform="translate(0.375 -0.002)" fill="#d71d0f"/>
    <path id="Trazado_2981" data-name="Trazado 2981" d="M154.834,155.612a.774.774,0,0,1-.549-.228l-7.77-7.77a.777.777,0,1,1,1.1-1.1l7.77,7.77a.777.777,0,0,1-.549,1.326Zm0,0" transform="translate(-139.913 -139.83)" fill="#fff"/>
    <path id="Trazado_2982" data-name="Trazado 2982" d="M147.063,155.611a.777.777,0,0,1-.549-1.326l7.77-7.77a.777.777,0,0,1,1.1,1.1l-7.77,7.77A.774.774,0,0,1,147.063,155.611Zm0,0" transform="translate(-139.912 -139.829)" fill="#fff"/>
  </g>
</svg>
