<svg xmlns="http://www.w3.org/2000/svg" width="45.163" height="45.359" viewBox="0 0 45.163 45.359"><defs><style>.a{fill:#fff;}</style></defs><path class="a" d="M125.475,1.529l-.055-.05a5.652,5.652,0,0,0-7.985.361l-20.2,22.112a1.949,1.949,0,0,0-.41.7l-2.375,7.12a2.708,2.708,0,0,0,2.564,3.564h0a2.7,2.7,0,0,0,1.087-.229l6.876-3.008a1.948,1.948,0,0,0,.658-.471l20.2-22.112A5.658,5.658,0,0,0,125.475,1.529ZM99,30.455l1.394-4.178.118-.129,2.641,2.413-.118.129ZM122.957,6.883l-17.171,18.8-2.641-2.413,17.171-18.8a1.751,1.751,0,0,1,2.475-.111l.054.05A1.753,1.753,0,0,1,122.957,6.883Z" transform="translate(-82.151 0)"/><path class="a" d="M40.163,46.063a1.95,1.95,0,0,0-1.95,1.95V64.57a4.965,4.965,0,0,1-4.96,4.96H9.617a4.965,4.965,0,0,1-4.96-4.96V41.126a4.965,4.965,0,0,1,4.96-4.96H26.725a1.95,1.95,0,1,0,0-3.9H9.617a8.87,8.87,0,0,0-8.86,8.86V64.57a8.87,8.87,0,0,0,8.86,8.86H33.253a8.87,8.87,0,0,0,8.86-8.86V48.013A1.95,1.95,0,0,0,40.163,46.063Z" transform="translate(-0.757 -28.071)"/></svg>