<svg xmlns="http://www.w3.org/2000/svg" width="24.549" height="24.656" viewBox="0 0 24.549 24.656"><defs><style>.edit{fill:#3a72b5;}</style></defs><path class="edit" d="M111.252.831,111.223.8a3.072,3.072,0,0,0-4.34.2L95.9,13.02a1.06,1.06,0,0,0-.223.38l-1.291,3.87a1.472,1.472,0,0,0,1.394,1.937h0a1.466,1.466,0,0,0,.591-.124l3.738-1.635a1.059,1.059,0,0,0,.358-.256L111.449,5.171A3.076,3.076,0,0,0,111.252.831ZM96.863,16.554l.758-2.271.064-.07,1.436,1.311-.064.07ZM109.884,3.742,100.55,13.96l-1.436-1.311L108.448,2.43a.952.952,0,0,1,1.345-.06l.03.027A.953.953,0,0,1,109.884,3.742Z" transform="translate(-87.702 0)"/><path class="edit" d="M22.177,39.766a1.06,1.06,0,0,0-1.06,1.06v9a2.7,2.7,0,0,1-2.7,2.7H5.573a2.7,2.7,0,0,1-2.7-2.7V37.082a2.7,2.7,0,0,1,2.7-2.7h9.3a1.06,1.06,0,1,0,0-2.12h-9.3A4.821,4.821,0,0,0,.757,37.082V49.825a4.822,4.822,0,0,0,4.816,4.816H18.421a4.822,4.822,0,0,0,4.816-4.816v-9A1.06,1.06,0,0,0,22.177,39.766Z" transform="translate(-0.757 -29.986)"/></svg>