<svg xmlns="http://www.w3.org/2000/svg" width="21.65" height="20.752" viewBox="0 0 21.65 20.752"><defs><style>.aex{fill:#fff;}.bex{fill:#4caf50;}</style></defs><g transform="translate(0 -10.626)"><g transform="translate(0 10.626)"><path class="aex" d="M12.459,10.727a.451.451,0,0,0-.382-.09L.35,13.343a.451.451,0,0,0-.35.444V29.122a.451.451,0,0,0,.382.446l11.727,1.8a.451.451,0,0,0,.52-.446V11.08A.451.451,0,0,0,12.459,10.727Z" transform="translate(0 -10.626)"/><path class="aex" d="M286.8,70.517h-9.021a.451.451,0,0,1,0-.9h8.57V54.279h-8.57a.451.451,0,1,1,0-.9H286.8a.451.451,0,0,1,.451.451V70.066A.451.451,0,0,1,286.8,70.517Z" transform="translate(-265.606 -51.569)"/></g><g transform="translate(3.6 16.931)"><path class="bex" d="M90.118,167.89a.451.451,0,0,1-.382-.212l-4.51-7.217a.451.451,0,1,1,.749-.5l.016.025L90.5,167.2a.451.451,0,0,1-.383.689Z" transform="translate(-85.149 -159.758)"/><path class="bex" d="M85.805,167.869a.451.451,0,0,1-.382-.69l4.51-7.217a.451.451,0,0,1,.78.452l-.016.025-4.51,7.217A.451.451,0,0,1,85.805,167.869Z" transform="translate(-85.346 -159.737)"/></g><g transform="translate(11.727 12.433)"><path class="aex" d="M363.118,70.516a.451.451,0,0,1-.451-.451V53.827a.451.451,0,1,1,.9,0V70.065A.451.451,0,0,1,363.118,70.516Z" transform="translate(-359.059 -53.376)"/><path class="aex" d="M286.8,374.278h-9.021a.451.451,0,0,1,0-.9H286.8a.451.451,0,0,1,0,.9Z" transform="translate(-277.333 -359.845)"/><path class="aex" d="M286.8,310.278h-9.021a.451.451,0,1,1,0-.9H286.8a.451.451,0,0,1,0,.9Z" transform="translate(-277.333 -298.551)"/><path class="a" d="M286.8,246.278h-9.021a.451.451,0,1,1,0-.9H286.8a.451.451,0,0,1,0,.9Z" transform="translate(-277.333 -237.257)"/><path class="a" d="M286.8,182.278h-9.021a.451.451,0,0,1,0-.9H286.8a.451.451,0,0,1,0,.9Z" transform="translate(-277.333 -175.963)"/><path class="aex" d="M286.8,118.278h-9.021a.451.451,0,0,1,0-.9H286.8a.451.451,0,0,1,0,.9Z" transform="translate(-277.333 -114.67)"/></g></g></svg>