<svg xmlns="http://www.w3.org/2000/svg" width="217.84" height="165.93" viewBox="0 0 217.84 165.93"><defs><style>.a{fill:#0f253f;}</style></defs><g transform="translate(-20.84 -19.17)"><path class="a" d="M42.925,19.247c59.7-.055,119.407.088,179.122-.077-.022,2.078-.022,4.166,0,6.244-11.993-.154-24-.022-36-.066,15.874,27.857,32.111,55.5,48.348,83.141-17.963-.033-35.926.022-53.9-.022q9.63,16.655,19.315,33.3c-46.831-.121-93.672-.044-140.5-.033,6.332-11.092,13.038-21.986,19.084-33.232-19.183-.044-38.366-.011-57.549-.022Q45.327,67.122,69.023,25.293c-8.7.11-17.4.033-26.1.055v-6.1m28.648,6.1q13.62,23.894,27.56,47.611,13.851-23.745,27.483-47.611-27.521-.033-55.043,0m60.759-.055c8.344,14.8,17.3,29.253,25.273,44.258a22.3,22.3,0,0,0,2.759-3.793c7.651-13.511,15.445-26.944,23.086-40.466q-25.559.115-51.118,0M69.693,36.572C57.238,58.6,44.112,80.27,31.778,102.355c16.765-.1,33.562.319,50.3-.2,4.727-7.475,9.124-15.2,13.346-22.976a31.87,31.87,0,0,0-2.77-5.332c-7.31-12.18-14.214-24.625-21.6-36.761-.341-.132-1.022-.385-1.363-.517M184.451,36.2c-12.609,22.14-25.647,44.027-38.256,66.157q38.635.016,77.271-.011C211.6,81.38,199.159,60.724,187.188,39.815A13.774,13.774,0,0,0,184.451,36.2Z" transform="translate(0 0)"/><path class="a" d="M23,138.915c71.818-.33,143.636-.055,215.465-.143-.011,1.913,0,3.826,0,5.749H23Z" transform="translate(0.215 11.876)"/><path class="a" d="M24.16,152.866c3.958-.044,7.959-.44,11.895.143a3.716,3.716,0,0,1,2.858,5c-.715,2.111-2.968,2.836-4.727,3.8,1.957,2.539,3.881,5.09,5.661,7.75l.638-.9c.033.7.121,2.122.165,2.825-4.98-1.341-6.387-7.058-9.927-10.279,2.77.077,6.442-1.418,5.606-4.848-.55-3.067-4.243-2.605-6.508-2.133-.077,5.156-.1,10.323.011,15.478.868.231,2.594.7,3.452.945a45.473,45.473,0,0,1-9.234.044c.8-.253,2.386-.77,3.188-1.022-.011-5.2.286-10.411-.121-15.6C26.381,153.778,24.9,153.173,24.16,152.866Z" transform="translate(0.319 13.261)"/><path class="a" d="M58.17,152.87c1.814-.044,3.628-.1,5.442-.143q3.595,7.255,7.244,14.489c2.2-4.837,4.507-9.619,6.6-14.511,1.352.418,4.166-.835,4.551.89-.407.154-1.209.451-1.6.594-.967,4.98-.242,10.18-.341,15.247.539.253,1.638.781,2.188,1.033-2.649.814-5.431.352-8.135.242.835-.264,2.5-.77,3.331-1.033.1-4.9.044-9.817.055-14.731-2.506,5.552-5.178,11.037-7.508,16.677-2.55-5.277-5.112-10.553-7.607-15.863.022,4.617-.088,9.245.132,13.873,1.033.352,2.056.715,3.089,1.088-2.232-.088-4.661.6-6.794-.11.616-.242,1.847-.737,2.462-.978-.088-5.189.242-10.378-.154-15.544C60.38,153.782,58.907,153.178,58.17,152.87Z" transform="translate(3.707 13.256)"/><path class="a" d="M80.94,153.207c2.462-.627,5.035-.44,7.541-.627.077.231.231.682.308.9-.594.11-1.792.308-2.4.407a117.028,117.028,0,0,0,.077,15.83c.7.231,2.122.682,2.825.912-2.528-.044-6.431,1.352-8.091-.539a2.33,2.33,0,0,0,2.517-2.737c.132-4.452.044-8.893-.077-13.335C82.963,153.811,81.622,153.415,80.94,153.207Z" transform="translate(5.969 13.249)"/><path class="a" d="M88.747,153.022c3.111-.66,6.519-.187,9.729-.22,2.484-.2,5.211,1.814,4.606,4.518-.385,2.5-2.935,3.485-4.9,4.5a84.7,84.7,0,0,0,7.4,9.179c-.846-.055-2.55-.176-3.4-.231-2.726-3-4.738-6.563-7.475-9.553,2.781.088,6.475-1.44,5.6-4.881-.572-3.056-4.232-2.539-6.5-2.111-.088,5.156-.1,10.312.011,15.478q1.8.478,3.595.989a59.506,59.506,0,0,1-9.179.066c.748-.286,2.243-.835,2.979-1.121.1-5.2.11-10.41,0-15.61C90.594,153.769,89.362,153.275,88.747,153.022Z" transform="translate(6.693 13.258)"/><path class="a" d="M103.47,152.905c5.123-.275,10.257-.121,15.379-.154-.319,1.7-.627,3.4-.956,5.1-.2-1.231-.385-2.451-.561-3.683a65.539,65.539,0,0,0-7.772-.308q-.017,3.578-.011,7.179c2.078-.033,4.144-.088,6.222-.2.308-.7.934-2.089,1.253-2.781,0,2.451.033,4.9.2,7.365-.6-1.121-1.209-2.232-1.814-3.342-1.957.011-3.914.011-5.859.011q0,3.859.011,7.728c2.638,0,5.288-.077,7.926-.242.451-1.253.89-2.506,1.308-3.76-.132,1.693.781,3.122,1.6,4.485,3.727-5.705,8.256-10.839,12.136-16.446a80.867,80.867,0,0,0-9.52.286c-.429,1.22-.857,2.44-1.286,3.65-.055-1.682-.1-3.353-.121-5.035,4.991,0,9.982-.077,14.973.066-4.419,5.606-8.729,11.3-13.093,16.962,3.727.022,7.464.044,11.191-.121.44-1.363.89-2.7,1.363-4.056-.033,1.759-.1,3.529-.154,5.288-10.542-.077-21.074-.066-31.616-.044.66-.352,1.979-1.033,2.627-1.374.4-5.057.143-10.136.077-15.2C105.8,153.818,104.635,153.367,103.47,152.905Z" transform="translate(8.206 13.265)"/><path class="a" d="M138.77,152.826a69.753,69.753,0,0,1,8.575.121c-.792.231-2.364.693-3.144.923,1.682,4.639,3.573,9.212,5.42,13.8,1.913-4.463,3.848-8.926,5.42-13.522-.857-.308-2.583-.923-3.441-1.231a69.352,69.352,0,0,1,7.091-.066c-.517.286-1.561.868-2.078,1.154-2.715,5.881-4.969,11.971-7.739,17.831-2.9-5.848-4.661-12.235-7.816-17.941C140.485,153.629,139.342,153.1,138.77,152.826Z" transform="translate(11.712 13.267)"/><path class="a" d="M174.43,152.96a55.366,55.366,0,0,1,9.828,0c-.923.253-2.77.748-3.7,1,0,5.288-.011,10.575.011,15.863a64.226,64.226,0,0,0,8.091-.4,19.122,19.122,0,0,1,1.726-3.727c-.033,1.737-.154,3.474-.286,5.2-4.551-.022-9.113.011-13.664-.055.4-.374,1.209-1.121,1.6-1.5.066-5.123.044-10.246.033-15.368C176.848,153.641,175.639,153.3,174.43,152.96Z" transform="translate(15.253 13.265)"/><path class="a" d="M188.73,152.893a61.872,61.872,0,0,1,9.575.077q-1.748.528-3.5,1.022c-.022,5.277-.011,10.553-.011,15.819a58.816,58.816,0,0,0,8.113-.4,29.348,29.348,0,0,1,1.682-3.749c.033,1.748-.11,3.5-.231,5.233-4.375-.011-8.751-.055-13.115.055,2.1-5.31.78-11.312.967-16.907C191.346,153.762,189.6,153.179,188.73,152.893Z" transform="translate(16.674 13.266)"/><path class="a" d="M203.11,152.927c5.068-.33,10.147-.121,15.225-.187-.33,1.7-.671,3.4-1.011,5.1-.176-1.231-.352-2.473-.517-3.7-2.583-.22-5.167-.308-7.761-.286q-.016,3.595-.011,7.189c2.7-.33,7.179,1.187,7.135-2.979a29.15,29.15,0,0,1,.1,7.387c-.264-.814-.8-2.43-1.066-3.232-2.056-.066-4.111-.11-6.167-.154,0,2.583,0,5.178.011,7.761,2.638,0,5.288-.055,7.926-.242.484-1.341.989-2.671,1.506-3.991q-.049,2.655-.132,5.31c-4.9-.022-9.817.055-14.72-.132.682-.286,2.034-.846,2.7-1.132a115.6,115.6,0,0,0,.044-15.489C205.561,153.84,203.924,153.235,203.11,152.927Z" transform="translate(18.102 13.265)"/><path class="a" d="M42.032,169.9c2.781-5.958,5.277-12.048,7.992-18.04,3.111,5.628,5.233,11.719,7.871,17.567.506.33,1.517,1,2.012,1.341-2.528.517-5.211.033-7.783.011.792-.253,2.386-.77,3.177-1.022-.627-1.616-1.242-3.221-1.869-4.826-2.671,0-5.354-.011-8.025-.011-.594,1.572-1.176,3.155-1.77,4.738.824.286,2.462.868,3.276,1.154-2.386.352-4.958.638-6.673-1.385l1.792.473m7.387-14.434c-1.176,2.781-2.32,5.563-3.463,8.366q3.5,0,6.992.011C51.794,161.039,50.628,158.247,49.419,155.466Z" transform="translate(1.927 13.178)"/><path class="a" d="M161.286,163.875c1.781-4.023,3.364-8.146,5.5-12.015,2.869,5.793,4.9,11.972,7.882,17.7l2.265,1.4c-2.77.033-5.541.055-8.3-.187.8-.242,2.386-.726,3.177-.967q-.923-2.44-1.825-4.859c-2.715-.022-5.442-.011-8.146.033-.55,1.55-1.088,3.1-1.627,4.661.748.286,2.221.879,2.968,1.176-2.243.077-4.485.176-6.717.264,2.77-1.473,3.606-4.562,4.826-7.2m1.176-.044h7.014c-1.176-2.792-2.342-5.6-3.507-8.377Q164.188,159.627,162.462,163.832Z" transform="translate(13.469 13.178)"/></g></svg>