<svg xmlns="http://www.w3.org/2000/svg" width="26.906" height="26.906" viewBox="0 0 26.906 26.906"><defs><style>.a{fill:#fff;}</style></defs><path class="a" d="M16.816,14.578A1.121,1.121,0,0,0,15.7,15.7v4.484A1.122,1.122,0,0,1,14.574,21.3H11.211V4.488A2.26,2.26,0,0,0,9.684,2.357l-.332-.111h5.222A1.122,1.122,0,0,1,15.7,3.367V6.73a1.121,1.121,0,0,0,2.242,0V3.367A3.367,3.367,0,0,0,14.574,0H2.522A.881.881,0,0,0,2.4.028C2.349.024,2.3,0,2.242,0A2.244,2.244,0,0,0,0,2.246v20.18a2.26,2.26,0,0,0,1.527,2.131l6.747,2.249a2.321,2.321,0,0,0,.7.1,2.244,2.244,0,0,0,2.242-2.242V23.547h3.363a3.367,3.367,0,0,0,3.363-3.363V15.7a1.121,1.121,0,0,0-1.121-1.121Zm0,0" transform="translate(0 -0.004)"/><path class="a" d="M289.336,111.479l-4.485-4.484a1.121,1.121,0,0,0-1.914.793v3.363h-4.484a1.121,1.121,0,1,0,0,2.242h4.484v3.363a1.121,1.121,0,0,0,1.914.793l4.485-4.484A1.12,1.12,0,0,0,289.336,111.479Zm0,0" transform="translate(-262.758 -101.06)"/></svg>