<svg xmlns="http://www.w3.org/2000/svg" width="277.919" height="38.54" viewBox="0 0 277.919 38.54"><defs><style>.a{fill:#fff;}</style></defs><g transform="translate(69.16 -19.17)"><path class="a" d="M27.042,19.192c16.766-.015,33.532.025,50.3-.022-.006.583-.006,1.17,0,1.754-3.368-.043-6.739-.006-10.11-.019,4.458,7.823,9.017,15.588,13.577,23.349-5.044-.009-10.089.006-15.136-.006q2.7,4.677,5.424,9.351c-13.151-.034-26.305-.012-39.457-.009C33.42,50.475,35.3,47.415,37,44.257c-5.387-.012-10.774,0-16.161-.006Q27.717,32.637,34.371,20.89c-2.442.031-4.887.009-7.329.015V19.192m8.045,1.713q3.825,6.71,7.739,13.371,3.89-6.669,7.718-13.371-7.729-.009-15.457,0M52.15,20.89c2.343,4.155,4.859,8.215,7.1,12.429a6.262,6.262,0,0,0,.775-1.065C62.17,28.46,64.359,24.687,66.5,20.89q-7.178.032-14.355,0m-17.59,3.168c-3.5,6.187-7.184,12.272-10.647,18.474,4.708-.028,9.425.09,14.127-.056,1.327-2.1,2.562-4.27,3.748-6.452a8.95,8.95,0,0,0-.778-1.5c-2.053-3.421-3.992-6.915-6.066-10.324l-.383-.145m32.226-.1c-3.541,6.218-7.2,12.365-10.743,18.579q10.85,0,21.7,0c-3.331-5.887-6.826-11.688-10.187-17.56A3.868,3.868,0,0,0,66.786,23.952Z" transform="translate(-90)"/><path class="a" d="M23,138.795c20.168-.093,40.336-.015,60.508-.04,0,.537,0,1.074,0,1.615H23Z" transform="translate(-91.494 -82.66)"/><path class="a" d="M24.14,152.835c3.246-.036,6.529-.361,9.757.117a3.049,3.049,0,0,1,2.345,4.1c-.586,1.732-2.435,2.327-3.878,3.121,1.605,2.084,3.183,4.176,4.644,6.359l.523-.74c.027.577.1,1.741.135,2.318-4.085-1.1-5.239-5.791-8.143-8.433,2.272.063,5.284-1.164,4.6-3.978-.451-2.516-3.481-2.138-5.339-1.75-.063,4.23-.081,8.469.009,12.7.712.189,2.128.577,2.832.776a37.3,37.3,0,0,1-7.575.036c.658-.208,1.957-.631,2.615-.839-.009-4.266.234-8.542-.1-12.8C25.962,153.583,24.744,153.087,24.14,152.835Z" transform="translate(10.629 -121.136)"/><path class="a" d="M58.17,152.831c1.488-.036,2.976-.081,4.464-.117q2.949,5.953,5.943,11.888c1.8-3.969,3.7-7.892,5.411-11.906,1.109.343,3.418-.685,3.733.731-.334.126-.992.37-1.317.487-.794,4.086-.2,8.352-.28,12.51.442.207,1.344.64,1.795.848-2.173.667-4.455.289-6.673.2.685-.217,2.047-.631,2.732-.848.081-4.023.036-8.055.045-12.086-2.056,4.555-4.247,9.056-6.159,13.683-2.092-4.329-4.193-8.659-6.24-13.015.018,3.788-.072,7.586.108,11.383.848.289,1.686.586,2.534.893-1.831-.072-3.824.5-5.573-.09.5-.2,1.515-.6,2.02-.8-.072-4.257.2-8.515-.126-12.754C59.983,153.579,58.774,153.083,58.17,152.831Z" transform="translate(7.277 -121.132)"/><path class="a" d="M80.94,153.094a35.5,35.5,0,0,1,6.186-.514c.063.189.189.559.253.74-.487.09-1.47.253-1.966.334a96.039,96.039,0,0,0,.063,12.988c.577.189,1.74.559,2.318.749-2.074-.036-5.275,1.109-6.637-.442a1.912,1.912,0,0,0,2.065-2.246c.108-3.653.036-7.3-.063-10.941C82.6,153.59,81.5,153.266,80.94,153.094Z" transform="translate(5.041 -121.122)"/><path class="a" d="M88.654,152.959c2.552-.541,5.348-.153,7.981-.18,2.038-.162,4.274,1.488,3.778,3.707-.316,2.047-2.408,2.859-4.022,3.689a69.5,69.5,0,0,0,6.069,7.531c-.694-.045-2.092-.144-2.786-.189-2.236-2.462-3.887-5.385-6.132-7.838,2.281.072,5.311-1.182,4.59-4-.469-2.507-3.472-2.084-5.329-1.732-.072,4.23-.081,8.46.009,12.7q1.474.392,2.949.812a48.8,48.8,0,0,1-7.53.054c.613-.235,1.84-.686,2.444-.92.081-4.266.09-8.542,0-12.808C90.169,153.572,89.159,153.166,88.654,152.959Z" transform="translate(4.324 -121.133)"/><path class="a" d="M103.47,152.875c4.2-.226,8.414-.1,12.616-.126-.262,1.4-.514,2.787-.785,4.185-.162-1.01-.316-2.011-.46-3.022a53.754,53.754,0,0,0-6.376-.253q-.014,2.936-.009,5.89c1.7-.027,3.4-.072,5.1-.162.252-.577.766-1.714,1.028-2.282,0,2.011.027,4.023.162,6.043-.5-.92-.992-1.831-1.488-2.742-1.605.009-3.21.009-4.806.009q0,3.166.009,6.341c2.164,0,4.338-.063,6.5-.2.37-1.028.73-2.056,1.073-3.085a6.292,6.292,0,0,0,1.317,3.68c3.057-4.681,6.772-8.893,9.956-13.493a66.325,66.325,0,0,0-7.809.235c-.352,1-.7,2-1.055,2.995-.045-1.38-.081-2.751-.1-4.131,4.094,0,8.188-.063,12.282.054-3.625,4.6-7.16,9.272-10.74,13.917,3.057.018,6.123.036,9.18-.1.361-1.118.73-2.219,1.118-3.328-.027,1.443-.081,2.9-.126,4.338-8.648-.063-17.287-.054-25.935-.036.541-.289,1.623-.848,2.155-1.127.325-4.149.117-8.316.063-12.474C105.382,153.624,104.426,153.254,103.47,152.875Z" transform="translate(2.827 -121.138)"/><path class="a" d="M138.77,152.814a57.205,57.205,0,0,1,7.034.1c-.649.189-1.939.568-2.579.758,1.38,3.806,2.931,7.558,4.446,11.32,1.569-3.662,3.156-7.324,4.446-11.094l-2.823-1.01a56.873,56.873,0,0,1,5.816-.054l-1.7.947c-2.227,4.826-4.076,9.822-6.348,14.63-2.381-4.8-3.824-10.039-6.412-14.72C140.177,153.472,139.239,153.039,138.77,152.814Z" transform="translate(-0.64 -121.144)"/><path class="a" d="M174.43,152.921a45.413,45.413,0,0,1,8.062,0c-.757.207-2.272.613-3.039.821,0,4.338-.009,8.677.009,13.015a52.679,52.679,0,0,0,6.637-.325,15.694,15.694,0,0,1,1.416-3.058c-.027,1.425-.126,2.85-.234,4.266-3.733-.018-7.476.009-11.209-.045.325-.307.992-.92,1.317-1.227.054-4.2.036-8.406.027-12.609C176.414,153.48,175.422,153.2,174.43,152.921Z" transform="translate(-4.142 -121.14)"/><path class="a" d="M188.73,152.867a50.744,50.744,0,0,1,7.854.063q-1.434.433-2.868.839c-.018,4.329-.009,8.659-.009,12.979a48.237,48.237,0,0,0,6.655-.325,24.088,24.088,0,0,1,1.38-3.076c.027,1.434-.09,2.868-.189,4.293-3.589-.009-7.178-.045-10.758.045,1.722-4.357.64-9.281.794-13.872C190.876,153.579,189.442,153.1,188.73,152.867Z" transform="translate(-5.547 -121.139)"/><path class="a" d="M203.11,152.893c4.157-.271,8.323-.1,12.49-.153-.271,1.4-.55,2.787-.83,4.185-.144-1.01-.289-2.029-.424-3.04-2.119-.18-4.238-.253-6.367-.235q-.014,2.949-.009,5.9c2.218-.271,5.889.974,5.853-2.444a23.922,23.922,0,0,1,.081,6.061c-.216-.667-.658-1.993-.875-2.652-1.686-.054-3.373-.09-5.059-.126,0,2.12,0,4.248.009,6.368,2.164,0,4.338-.045,6.5-.2.4-1.1.812-2.192,1.235-3.274q-.041,2.178-.108,4.357c-4.022-.018-8.053.045-12.075-.108.559-.235,1.668-.695,2.218-.929a94.857,94.857,0,0,0,.036-12.709C205.121,153.641,203.777,153.145,203.11,152.893Z" transform="translate(-6.958 -121.137)"/><path class="a" d="M41.71,166.661c2.281-4.889,4.329-9.886,6.556-14.8,2.552,4.618,4.292,9.615,6.457,14.413.415.271,1.244.821,1.65,1.1-2.074.424-4.274.027-6.385.009.649-.207,1.957-.631,2.606-.839-.514-1.326-1.019-2.643-1.533-3.96-2.191,0-4.392-.009-6.583-.009-.487,1.29-.965,2.589-1.452,3.887.676.234,2.02.713,2.687.947-1.957.289-4.067.523-5.474-1.137l1.47.388m6.06-11.843c-.965,2.282-1.9,4.564-2.841,6.864q2.868,0,5.735.009C49.718,159.391,48.762,157.1,47.77,154.818Z" transform="translate(9.036 -121.055)"/><path class="a" d="M160.419,161.719c1.461-3.3,2.759-6.684,4.509-9.858,2.354,4.753,4.022,9.822,6.466,14.522l1.858,1.145c-2.272.027-4.545.045-6.808-.153.658-.2,1.957-.6,2.606-.794q-.758-2-1.5-3.987c-2.227-.018-4.464-.009-6.682.027-.451,1.272-.893,2.544-1.335,3.824.613.234,1.822.722,2.435.965-1.84.063-3.679.144-5.51.216,2.272-1.209,2.958-3.743,3.959-5.908m.965-.036h5.753c-.965-2.291-1.921-4.591-2.877-6.873Q162.8,158.232,161.384,161.682Z" transform="translate(-2.376 -121.055)"/></g></svg>