<svg xmlns="http://www.w3.org/2000/svg" width="306.999" height="27" viewBox="0 0 306.999 27"><defs><style>.a,.b{fill:#fff;}.a{font-size:18px;font-family:Montserrat-Light, Montserrat;font-weight:300;}</style></defs><g transform="translate(-256.973 -188.686)"><text class="a" transform="translate(308.972 188.686)"><tspan x="0" y="17">Historial de busqueda</tspan></text><g transform="translate(256.973 110.996)"><g transform="translate(5.828 80)"><path class="b" d="M117.51,80H98.119a1.939,1.939,0,0,0,0,3.878H117.51a1.939,1.939,0,0,0,0-3.878Z" transform="translate(-96.18 -80)"/></g><g transform="translate(0 80.008)"><g transform="translate(0 0)"><path class="b" d="M3.89,82.066a1.939,1.939,0,0,0-3.878,0,1.651,1.651,0,0,0,0,.378,1.748,1.748,0,0,0,.107.368,2.251,2.251,0,0,0,.184.33,1.774,1.774,0,0,0,.242.3,1.716,1.716,0,0,0,.291.233,1.58,1.58,0,0,0,.33.184A1.6,1.6,0,0,0,1.573,84a1.7,1.7,0,0,0,.378,0,1.939,1.939,0,0,0,1.367-.562,1.774,1.774,0,0,0,.242-.3,2.251,2.251,0,0,0,.184-.33,1.8,1.8,0,0,0,.145-.368A1.651,1.651,0,0,0,3.89,82.066Z" transform="translate(-0.001 -80.135)"/></g></g><g transform="translate(0.012 88.732)"><path class="b" d="M4.058,226.066a1.658,1.658,0,0,0,0-.378,1.571,1.571,0,0,0-.145-.359,1.938,1.938,0,0,0-.184-.339,1.4,1.4,0,0,0-.242-.291A1.939,1.939,0,0,0,.18,226.066a1.934,1.934,0,0,0,.32,1.076,1.862,1.862,0,0,0,.252.291,1.416,1.416,0,0,0,.291.242,1.573,1.573,0,0,0,.33.184,1.648,1.648,0,0,0,.368.107,1.609,1.609,0,0,0,.378.039,1.651,1.651,0,0,0,.378,0,1.573,1.573,0,0,0,.359-.107,1.619,1.619,0,0,0,.339-.184,1.416,1.416,0,0,0,.291-.242,1.416,1.416,0,0,0,.242-.291,1.559,1.559,0,0,0,.184-.33,1.64,1.64,0,0,0,.145-.407A1.6,1.6,0,0,0,4.058,226.066Z" transform="translate(-0.18 -224.135)"/></g><g transform="translate(0.012 97.459)"><path class="b" d="M4.056,370.066a1.665,1.665,0,0,0,0-.378,1.65,1.65,0,0,0-.145-.368,2.253,2.253,0,0,0-.184-.33,1.416,1.416,0,0,0-.242-.291,1.939,1.939,0,0,0-2.734,0,1.416,1.416,0,0,0-.242.291,2.253,2.253,0,0,0-.184.33,1.589,1.589,0,0,0-.107.368,1.666,1.666,0,0,0-.039.378,1.939,1.939,0,0,0,.572,1.367,1.415,1.415,0,0,0,.291.242,1.573,1.573,0,0,0,.33.184,1.648,1.648,0,0,0,.368.107,1.607,1.607,0,0,0,.378.039,1.649,1.649,0,0,0,.378,0,1.572,1.572,0,0,0,.359-.107,1.619,1.619,0,0,0,.339-.184,1.415,1.415,0,0,0,.291-.242,1.416,1.416,0,0,0,.242-.291,1.553,1.553,0,0,0,.184-.33,1.646,1.646,0,0,0,.145-.407A1.6,1.6,0,0,0,4.056,370.066Z" transform="translate(-0.178 -368.135)"/></g><g transform="translate(5.828 88.725)"><path class="b" d="M119.449,224H98.119a1.939,1.939,0,1,0,0,3.878h21.33a1.939,1.939,0,1,0,0-3.878Z" transform="translate(-96.18 -224)"/></g><g transform="translate(5.828 97.451)"><g transform="translate(0 0)"><path class="b" d="M110.723,368h-12.6a1.939,1.939,0,1,0,0,3.878h12.6a1.939,1.939,0,1,0,0-3.878Z" transform="translate(-96.18 -368)"/></g></g></g></g></svg>